<svg width="48" height="46" viewBox="0 0 48 46" fill="none" xmlns="http://www.w3.org/2000/svg">
<path d="M22.8001 45.0009C35.3924 45.0009 45.6003 34.927 45.6003 22.5005C45.6003 10.0738 35.3924 0 22.8001 0C10.208 0 0 10.0738 0 22.5005C0 34.927 10.208 45.0009 22.8001 45.0009Z" fill="#E0E0F1"/>
<path d="M46.1775 0L0 45.5704H46.1775V0Z" fill="#6366F1"/>
<path d="M46.1777 19.1882H19.4434V45.5709H46.1777V19.1882Z" fill="#818CF8"/>
<path d="M35.8484 35.3768C42.5596 35.3768 48.0002 30.0078 48.0002 23.3846C48.0002 16.7614 42.5596 11.3923 35.8484 11.3923C29.1369 11.3923 23.6963 16.7614 23.6963 23.3846C23.6963 30.0078 29.1369 35.3768 35.8484 35.3768Z" fill="#3730A3"/>
</svg>
