<svg width="632" height="128" viewBox="0 0 632 128" fill="none" xmlns="http://www.w3.org/2000/svg">
<path d="M230.429 106.576H213.913L176.516 50.5356V106.576H160V24.7968H176.516L213.913 80.954V24.7968H230.429V106.576ZM297.596 24.9138V38.1341H263.266V59.0763H289.573V72.0626H263.266V106.576H246.75V24.9138H297.596ZM365.344 24.9138V38.1341H343.401V106.576H326.885V38.1341H304.943V24.9138H365.344ZM373.147 73.9343C373.147 67.3827 374.445 61.5719 377.041 56.5023C379.714 51.4325 383.293 47.5327 387.776 44.8028C392.337 42.073 397.41 40.708 402.994 40.708C407.87 40.708 412.117 41.683 415.735 43.6329C419.431 45.5828 422.381 48.0397 424.583 51.0035V41.761H441.219V106.576H424.583V97.0992C422.46 100.141 419.51 102.676 415.735 104.704C412.038 106.654 407.752 107.629 402.876 107.629C397.371 107.629 392.337 106.225 387.776 103.417C383.293 100.609 379.714 96.6703 377.041 91.6006C374.445 86.453 373.147 80.5642 373.147 73.9343ZM424.583 74.1685C424.583 70.1906 423.796 66.7979 422.224 63.99C420.65 61.1042 418.527 58.9203 415.853 57.4382C413.179 55.8783 410.308 55.0983 407.241 55.0983C404.174 55.0983 401.343 55.8393 398.747 57.3212C396.152 58.8032 394.028 60.9871 392.377 63.8729C390.803 66.6808 390.018 70.0347 390.018 73.9343C390.018 77.8343 390.803 81.2662 392.377 84.2299C394.028 87.1157 396.152 89.3388 398.747 90.8986C401.421 92.4584 404.252 93.2384 407.241 93.2384C410.308 93.2384 413.179 92.4976 415.853 91.0157C418.527 89.4559 420.65 87.2716 422.224 84.4638C423.796 81.578 424.583 78.1461 424.583 74.1685ZM519.048 41.761V106.576H502.411V98.3864C500.29 101.194 497.497 103.417 494.037 105.055C490.656 106.615 486.959 107.395 482.946 107.395C477.834 107.395 473.312 106.342 469.382 104.236C465.447 102.052 462.343 98.8933 460.06 94.7594C457.86 90.5476 456.758 85.5559 456.758 79.7843V41.761H473.272V77.4441C473.272 82.5921 474.572 86.5697 477.167 89.3776C479.762 92.1075 483.301 93.4726 487.784 93.4726C492.346 93.4726 495.925 92.1075 498.52 89.3776C501.115 86.5697 502.411 82.5921 502.411 77.4441V41.761H519.048ZM551.86 20V106.576H535.341V20H551.86ZM563.931 73.9343C563.931 67.3827 565.226 61.5719 567.822 56.5023C570.496 51.4325 574.074 47.5327 578.557 44.8028C583.12 42.073 588.191 40.708 593.777 40.708C598.651 40.708 602.897 41.683 606.515 43.6329C610.212 45.5828 613.163 48.0397 615.363 51.0035V41.761H632V106.576H615.363V97.0992C613.242 100.141 610.291 102.676 606.515 104.704C602.818 106.654 598.532 107.629 593.658 107.629C588.152 107.629 583.12 106.225 578.557 103.417C574.074 100.609 570.496 96.6703 567.822 91.6006C565.226 86.453 563.931 80.5642 563.931 73.9343ZM615.363 74.1685C615.363 70.1906 614.577 66.7979 613.005 63.99C611.433 61.1042 609.308 58.9203 606.634 57.4382C603.959 55.8783 601.092 55.0983 598.023 55.0983C594.954 55.0983 592.126 55.8393 589.53 57.3212C586.935 58.8032 584.81 60.9871 583.159 63.8729C581.583 66.6808 580.797 70.0347 580.797 73.9343C580.797 77.8343 581.583 81.2662 583.159 84.2299C584.81 87.1157 586.935 89.3388 589.53 90.8986C592.201 92.4584 595.033 93.2384 598.023 93.2384C601.092 93.2384 603.959 92.4976 606.634 91.0157C609.308 89.4559 611.433 87.2716 613.005 84.4638C614.577 81.578 615.363 78.1461 615.363 74.1685Z" fill="#6366F1"/>
<path d="M56.5473 118.668C87.778 118.668 113.095 93.6834 113.095 62.8638C113.095 32.044 87.778 7.05957 56.5473 7.05957C25.3171 7.05957 0 32.044 0 62.8638C0 93.6834 25.3171 118.668 56.5473 118.668Z" fill="#E0E0F1"/>
<path d="M114.527 7.05957L0 120.081H114.527V7.05957Z" fill="#6366F1"/>
<path d="M114.528 54.6489H48.2227V120.082H114.528V54.6489Z" fill="#818CF8"/>
<path d="M88.9083 94.799C105.553 94.799 119.047 81.4832 119.047 65.0568C119.047 48.6303 105.553 35.3142 88.9083 35.3142C72.263 35.3142 58.7695 48.6303 58.7695 65.0568C58.7695 81.4832 72.263 94.799 88.9083 94.799Z" fill="#3730A3"/>
</svg>
