<svg width="421" height="421" viewBox="0 0 421 421" fill="none" xmlns="http://www.w3.org/2000/svg">
<rect width="421" height="421" fill="#111827"/>
<path d="M106.5 208.486C145.988 208.486 178 176.695 178 137.48C178 98.2642 145.988 66.4736 106.5 66.4736C67.0116 66.4736 35 98.2642 35 137.48C35 176.695 67.0116 208.486 106.5 208.486Z" fill="#E0E0F1"/>
<path d="M209 212.514L0 421H209V212.514Z" fill="#6366F1"/>
<path d="M421 0H209V212.514H421V0Z" fill="#818CF8"/>
<path d="M316.001 421C373.99 421 421 374.33 421 316.758C421 259.186 373.99 212.514 316.001 212.514C258.01 212.514 211 259.186 211 316.758C211 374.33 258.01 421 316.001 421Z" fill="#3730A3"/>
</svg>
